<svg xmlns="http://www.w3.org/2000/svg" viewBox="0 0 140 140">
  <path fill-rule="evenodd" fill="#0014FF" d="M89.074 137.355c-37.144 10.512-75.918-11.151-86.432-48.29-10.515-37.139 11.15-75.908 48.295-86.42 37.145-10.513 75.919 11.149 86.433 48.29 10.514 37.138-11.151 75.906-48.296 86.42zm47.149-86.097C125.888 14.751 87.775-6.543 51.262 3.791 14.749 14.125-6.547 52.233 3.788 88.741c10.336 36.507 48.449 57.8 84.962 47.466 36.512-10.334 57.809-48.442 47.473-84.949zm-1.308 19.775c-.673.001-1.221-.542-1.223-1.216v-.025c-.002-.672.542-1.22 1.215-1.222.674-.002 1.221.542 1.224 1.216l-.001.023c.002.674-.541 1.222-1.215 1.224zm-.175-5.893c-.671.062-1.266-.428-1.33-1.099l-.002-.025c-.064-.67.428-1.265 1.099-1.328.67-.064 1.264.428 1.328 1.097l.003.025c.063.671-.429 1.266-1.098 1.33zm-.715-5.853c-.662.125-1.298-.311-1.423-.973l-.004-.024c-.125-.662.311-1.299.973-1.423.662-.124 1.299.312 1.423.972l.005.025c.124.661-.312 1.299-.974 1.423zm-1.241-5.764c-.648.183-1.321-.193-1.505-.841l-.007-.023c-.182-.647.194-1.321.842-1.506.648-.182 1.322.194 1.505.842l.007.024c.182.648-.194 1.322-.842 1.504zm-1.802-5.768c-.628.242-1.334-.07-1.576-.699l-.008-.022h-.002c-.242-.629.072-1.334.7-1.577.628-.241 1.334.072 1.576.7l.009.023c.242.627-.071 1.333-.699 1.575zm-2.265-5.443c-.604.298-1.335.05-1.634-.554l-.011-.021c-.297-.604-.05-1.335.554-1.633.603-.298 1.335-.05 1.632.553l.012.022c.298.604.051 1.334-.553 1.633zm-2.752-5.214c-.573.351-1.324.172-1.677-.402l-.012-.021c-.353-.574-.173-1.325.401-1.676.574-.353 1.324-.173 1.677.401l.012.02c.352.574.173 1.325-.401 1.678zm-4.925-5.188l-.014-.019c-.403-.539-.293-1.303.247-1.706.538-.404 1.301-.294 1.706.245l.015.021c.402.538.292 1.301-.247 1.706-.54.402-1.303.293-1.707-.247zm-3.67-4.466l-.017-.02c-.451-.499-.412-1.271.089-1.721.499-.451 1.271-.411 1.721.089l.017.018c.451.5.411 1.27-.089 1.722-.501.45-1.27.411-1.721-.088zm-4.065-4.116l-.018-.017c-.496-.457-.525-1.228-.069-1.722.457-.495 1.229-.525 1.724-.068l.017.016c.494.456.525 1.228.068 1.723-.456.494-1.228.525-1.722.068zm-4.423-3.73l-.02-.015c-.533-.41-.633-1.175-.225-1.708.411-.533 1.177-.634 1.711-.224l.019.014c.534.41.634 1.175.224 1.71-.41.533-1.175.634-1.709.223zm-4.742-3.313l-.022-.013h-.001c-.568-.36-.738-1.113-.377-1.681.36-.57 1.113-.739 1.682-.379l.021.014c.569.36.738 1.112.377 1.682-.359.568-1.112.737-1.68.377zm-5.026-2.871l-.021-.012.001.001c-.599-.308-.837-1.042-.529-1.641.307-.599 1.041-.836 1.64-.528l.023.01c.599.308.836 1.042.528 1.641-.308.599-1.042.835-1.642.529zm-5.262-2.406L93.83 11l-.002-.002c-.624-.251-.924-.961-.674-1.586.253-.624.963-.926 1.588-.674l.022.009c.624.251.927.962.674 1.586-.251.624-.961.926-1.586.675zm-5.459-1.919l-.023-.007c-.646-.194-1.01-.875-.817-1.52.196-.643.875-1.009 1.52-.814l.023.006c.644.194 1.01.875.816 1.518-.194.645-.874 1.011-1.519.817zm-5.611-1.416l-.024-.004c-.66-.136-1.085-.779-.95-1.438.134-.661.778-1.086 1.438-.951l.024.005c.66.134 1.084.777.95 1.438-.134.659-.778 1.085-1.438.95zm-5.716-.897l-.025-.002h.001c-.67-.075-1.152-.676-1.079-1.346.075-.67.676-1.152 1.346-1.078l.024.003c.67.072 1.152.675 1.077 1.344-.072.67-.675 1.152-1.344 1.079zm-5.775-.371l-.024-.001c-.674-.012-1.209-.567-1.198-1.24.013-.674.569-1.209 1.242-1.198l.024.002c.674.011 1.21.567 1.198 1.24-.013.673-.569 1.209-1.242 1.197zm56.776 47.162c9.061 32.009-9.611 65.424-41.625 74.485-32.016 9.06-65.434-9.61-74.497-41.62-9.063-32.01 9.611-65.424 41.626-74.485 32.015-9.061 65.433 9.61 74.496 41.62zM53.903 13.12C22.536 21.997 4.24 54.736 13.119 86.101c8.879 31.361 41.622 49.655 72.99 40.778C117.476 118 135.772 85.262 126.893 53.9c-8.879-31.364-41.622-49.658-72.99-40.78zm31.19 110.169c-29.389 8.318-60.065-8.821-68.384-38.205C8.39 55.7 25.531 25.027 54.92 16.709c29.389-8.318 60.065 8.823 68.383 38.206 8.32 29.384-8.821 60.058-38.21 68.374zm37.038-68.042c-8.136-28.737-38.137-45.5-66.879-37.365-28.743 8.135-45.505 38.132-37.37 66.87 8.136 28.737 38.136 45.499 66.879 37.364 28.742-8.134 45.505-38.131 37.37-66.869zm-38.386 63.279c-26.763 7.575-54.699-8.032-62.273-34.791-7.576-26.757 8.033-54.689 34.796-62.263 26.761-7.574 54.697 8.033 62.273 34.791 7.575 26.758-8.035 54.69-34.796 62.263zm33.622-61.931c-7.392-26.111-34.652-41.342-60.767-33.95-26.115 7.391-41.348 34.647-33.955 60.759 7.392 26.111 34.652 41.34 60.767 33.949 26.116-7.391 41.347-34.646 33.955-60.758zM89.085 88.849c2.372 5.74 4.327 11.621 5.816 17.524.005.019 0 .039.003.059.008.046.011.089.008.136-.002.037-.008.07-.016.106-.006.026-.003.05-.013.075-.007.018-.021.029-.03.046-.022.049-.053.09-.088.131-.025.031-.045.062-.076.088-.036.03-.082.047-.125.069-.035.017-.064.046-.101.056-.082.024-.169.023-.255.011-.012-.001-.023-.004-.035-.006-.033-.006-.068-.008-.1-.02l-15.023-5.525-9.806 12.457c-.074.148-.203.268-.375.322-.005.002-.011.004-.017.005-.327.093-.672-.092-.773-.418-1.83-5.821-3.249-11.85-4.239-17.961l-4.963-1.825c-4.725 4.026-9.714 7.701-14.872 10.946 0 0-.002 0-.003.003-.005.001-.012.006-.012.006-.052.033-.109.058-.164.074-.062.018-.128.026-.196.022l-.001.001c-.077-.003-.151-.024-.223-.054-.022-.01-.041-.025-.062-.037-.043-.024-.083-.053-.122-.088-.021-.02-.039-.042-.057-.067-.015-.017-.033-.029-.045-.05-.012-.017-.013-.037-.021-.055-.02-.04-.034-.077-.046-.12-.012-.042-.018-.081-.019-.124-.002-.021-.012-.039-.011-.06l.613-16.003-15.001-5.517c-.02-.008-.035-.025-.055-.034-.044-.021-.087-.046-.126-.078-.026-.021-.047-.046-.07-.071-.013-.016-.033-.029-.045-.047-.01-.014-.012-.031-.021-.045-.023-.04-.041-.082-.056-.127-.013-.036-.022-.072-.027-.111-.005-.036-.005-.073-.003-.112.001-.048.009-.092.021-.139.005-.015.002-.031.007-.047.006-.016.02-.029.028-.044.021-.046.045-.086.078-.126.021-.028.044-.052.068-.075.02-.017.032-.038.052-.054 4.916-3.498 10.211-6.705 15.771-9.559l.203-5.293c-5.29-3.246-10.331-6.857-15.013-10.764-.016-.012-.023-.03-.037-.045-.031-.031-.058-.064-.081-.102-.023-.036-.042-.071-.057-.109-.008-.02-.023-.034-.028-.056-.006-.02-.001-.039-.005-.059-.007-.041-.01-.081-.01-.123.001-.041.004-.081.013-.121.008-.038.021-.073.036-.109.017-.041.036-.077.061-.115.011-.015.014-.033.027-.05.014-.015.032-.022.047-.036.031-.032.065-.058.103-.082.034-.022.069-.04.108-.056.02-.008.034-.022.056-.028l15.402-4.359.613-15.995c0-.02.011-.038.014-.059.006-.042.015-.08.03-.121.014-.042.032-.079.056-.118.009-.016.012-.036.024-.053.011-.015.027-.022.041-.036.029-.034.062-.063.099-.09.031-.023.062-.043.096-.059.037-.018.075-.03.115-.041.041-.01.082-.018.125-.02.019-.001.036-.008.055-.008.021.001.037.012.057.015.045.005.085.015.128.03.038.013.075.03.11.052.019.011.039.013.058.026 4.84 3.591 9.531 7.642 13.976 12.063l5.125-1.451c1.455-6.033 3.306-11.945 5.57-17.595.009-.02.024-.033.034-.052.019-.037.04-.07.068-.103.028-.035.058-.065.092-.093.016-.013.024-.03.042-.041.015-.011.034-.012.05-.022.039-.021.078-.036.121-.048.038-.012.075-.022.116-.026.038-.004.074-.003.114 0 .044.003.087.012.131.024.018.006.035.004.053.01.019.009.032.024.05.032.038.02.073.043.109.071.032.028.06.057.088.088.013.017.031.026.043.044l8.905 13.3 15.382-4.354c.309-.087.621.078.744.367.003.007.006.012.008.018.008.018.02.031.027.051.005.02.001.04.004.06.032.116.042.24 0 .362-1.899 5.656-4.301 11.35-7.145 16.967l2.944 4.397c6.194-.481 12.396-.523 18.477-.115.02.001.036.012.056.015.043.007.083.018.124.035.041.015.078.034.114.058.018.01.038.013.054.025.015.013.021.031.036.044.032.03.058.062.083.098.024.033.044.067.06.103.016.035.027.07.035.108.011.044.016.087.018.131 0 .02.007.037.007.055-.002.027-.012.049-.017.073-.005.028-.009.052-.018.079-.021.065-.051.124-.09.179-.005.005-.005.011-.008.017l-.008.008-.003.005-9.892 12.566 8.9 13.291c.193.289.115.681-.174.875-.056.037-.117.066-.179.084-.104.028-.212.023-.315 0-6.044-.064-12.171-.573-18.255-1.515l-3.274 4.158zm-58.88-6.562l13.482 4.96.515-13.405c-4.908 2.551-9.599 5.382-13.997 8.445zm60.73 2.172c-.534-.09-1.066-.174-1.599-.269-.836-.149-1.67-.309-2.503-.475.371.797.735 1.598 1.091 2.404.204.466.4.935.6 1.403l2.411-3.063zm2.436 21.062c-1.375-5.228-3.113-10.431-5.187-15.529l-8.313 10.563 13.5 4.966zm-24.442 6.895l8.874-11.276-12.597-4.633c.906 5.403 2.153 10.735 3.723 15.909zm-4.296-19.61c.104.757.219 1.513.337 2.268l13.655 5.023 9.009-11.444c-.285-.677-.572-1.354-.868-2.026-.478-1.087-.976-2.165-1.482-3.236-4.162-.88-8.266-1.957-12.301-3.237-2.762 3.208-5.692 6.276-8.773 9.21.128 1.147.265 2.295.423 3.442zm-.832-27.198c-.247 3.237-.371 6.48-.369 9.725 3.001 1.235 6.048 2.356 9.135 3.358 2.102-2.473 4.11-5.025 6.016-7.651-1.701-2.763-3.508-5.459-5.417-8.084-3.155.765-6.278 1.649-9.365 2.652zm8.556-3.752c-2.204-2.965-4.539-5.837-7.004-8.608-.641 3.653-1.122 7.322-1.442 11.002 2.787-.895 5.604-1.693 8.446-2.394zm7.023 8.075c2.138-3.012 4.147-6.118 6.023-9.318-3.672.518-7.311 1.195-10.91 2.026 1.712 2.375 3.341 4.805 4.887 7.292zm-.086 2.275c-1.729 2.362-3.539 4.661-5.426 6.899 3.525 1.102 7.103 2.053 10.725 2.848-1.627-3.332-3.397-6.583-5.299-9.747zm-15.25 15.572c2.666-2.578 5.212-5.264 7.635-8.052-2.781-.914-5.529-1.923-8.24-3.027.041 3.692.242 7.387.605 11.079zm-.425 6.8c-.08-.534-.163-1.066-.236-1.599-.117-.842-.223-1.684-.321-2.526-.645.599-1.294 1.192-1.951 1.779-.379.338-.763.668-1.145 1l3.653 1.346zm-19.289 8.836c4.553-2.926 8.97-6.19 13.179-9.738l-12.627-4.644-.552 14.382zM31.19 56.123c4.19 3.425 8.656 6.614 13.326 9.518l.515-13.436-13.841 3.918zm13.744 31.582l13.681 5.031c.555-.478 1.108-.959 1.656-1.448.886-.79 1.757-1.596 2.618-2.409-.448-4.231-.692-8.466-.722-12.697-3.903-1.637-7.728-3.475-11.471-5.496-1.051.474-2.102.96-3.143 1.465-.692.336-1.378.679-2.063 1.027l-.556 14.527zm17.569-21.667c-3.499 1.181-6.95 2.513-10.35 3.999 3.277 1.739 6.619 3.33 10.018 4.772.011-2.928.123-5.852.332-8.771zm-16.808 1.8l-.149 3.901c.485-.242.967-.488 1.456-.724.765-.371 1.534-.732 2.304-1.086-.768-.428-1.534-.86-2.294-1.304-.443-.258-.879-.524-1.317-.787zm1.214-31.675l-.55 14.355 12.901-3.651c-3.95-3.885-8.085-7.473-12.351-10.704zm13.375 11.726l-13.975 3.954L45.75 66.4c.63.383 1.26.762 1.897 1.133 1.026.599 2.063 1.177 3.103 1.747 3.885-1.733 7.838-3.275 11.854-4.611.349-4.217.915-8.422 1.683-12.607-.777-.854-1.562-1.701-2.365-2.535-.537-.559-1.093-1.09-1.638-1.638zm1.41-.399c.379.386.762.769 1.137 1.162.59.612 1.171 1.232 1.747 1.855.168-.863.344-1.725.531-2.586.11-.502.244-.997.359-1.5l-3.774 1.069zm10.425-18.463c-1.959 5.034-3.605 10.258-4.925 15.594l12.918-3.655-7.993-11.939zm8.732 13.04l-13.992 3.96c-.171.723-.359 1.437-.516 2.162-.253 1.162-.483 2.326-.702 3.49 2.849 3.159 5.536 6.442 8.049 9.848 4.12-.971 8.294-1.732 12.512-2.296.571-1.002 1.134-2.009 1.68-3.029v-.003c.363-.678.716-1.359 1.065-2.039l-8.096-12.093zm15.132-4.282l-13.855 3.92 7.471 11.161c2.5-4.998 4.639-10.052 6.384-15.081zm-6.235 17.57c-.25.481-.496.961-.751 1.439l-.003.002c-.4.75-.81 1.492-1.223 2.23.872-.106 1.746-.205 2.624-.293.507-.051 1.015-.093 1.523-.137l-2.17-3.241zm2.971 4.436c-.733.062-1.466.125-2.199.199-1.182.119-2.36.261-3.536.412-2.124 3.684-4.416 7.254-6.88 10.695 2.196 3.618 4.21 7.352 6.049 11.189 1.131.234 2.265.456 3.404.66.755.135 1.512.26 2.268.382l8.999-11.432-8.105-12.105zm17.824-.242c-5.401-.309-10.889-.264-16.379.132l7.481 11.172 8.898-11.304zm-.998 25.372l-7.983-11.922-8.304 10.549c5.431.809 10.889 1.27 16.287 1.373zM65.509 6.565l-.024.001c-.672.05-1.256-.454-1.305-1.126-.05-.672.454-1.255 1.126-1.305l.025-.003c.67-.048 1.255.455 1.304 1.127.05.672-.454 1.256-1.126 1.306zm-5.743.686l-.024.005h-.001c-.664.111-1.292-.339-1.402-1.003-.11-.664.339-1.292 1.003-1.402l.024-.004c.664-.111 1.292.337 1.402 1.002.111.664-.338 1.293-1.002 1.402zm-5.659 1.205l-.023.007c-.653.169-1.318-.221-1.488-.872-.169-.651.221-1.318.873-1.487l.024-.006c.65-.17 1.316.22 1.486.871.171.652-.22 1.318-.872 1.487zm-5.529 1.708l-.023.009c-.634.227-1.333-.103-1.56-.736-.227-.634.103-1.332.737-1.56l.022-.007c.633-.228 1.331.101 1.558.734.228.634-.101 1.332-.734 1.56zm-5.351 2.198l-.022.011c-.611.283-1.335.019-1.62-.592-.284-.61-.019-1.335.591-1.619l.022-.011c.61-.284 1.335-.019 1.62.592.284.61.019 1.335-.591 1.619zm-5.129 2.675l-.021.013c-.581.338-1.327.141-1.666-.44-.339-.583-.141-1.328.441-1.667l.021-.012c.582-.339 1.328-.142 1.668.44.337.582.14 1.328-.443 1.666zm-4.88 3.149c-.548.39-1.309.263-1.701-.287-.39-.548-.262-1.309.287-1.699l.02-.015c.548-.39 1.309-.261 1.7.287s.263 1.309-.286 1.7l-.02.014zm-4.551 3.567c-.511.438-1.281.381-1.719-.13-.44-.51-.382-1.279.129-1.719l.018-.015c.51-.44 1.281-.382 1.719.128.438.511.382 1.28-.129 1.72l-.018.016zm-4.208 3.968c-.469.483-1.241.496-1.724.028-.484-.469-.496-1.241-.028-1.725l.017-.017c.469-.484 1.241-.496 1.724-.027.483.468.496 1.24.028 1.723l-.017.018zm-3.83 4.336v-.002c-.423.525-1.19.608-1.714.186-.524-.423-.608-1.19-.184-1.714l.015-.019c.422-.525 1.19-.607 1.714-.184.525.421.607 1.189.185 1.713l-.016.02zm-3.42 4.664c-.374.561-1.131.712-1.691.34-.561-.374-.713-1.131-.339-1.691l.013-.021c.374-.56 1.131-.711 1.691-.338.56.373.712 1.13.34 1.69l-.014.02zm-2.986 4.956c-.321.592-1.061.812-1.654.491-.591-.322-.81-1.061-.49-1.652l.012-.022c.321-.592 1.061-.811 1.652-.491.593.321.812 1.061.491 1.654l-.011.02zm-2.526 5.207c-.266.618-.983.903-1.602.637-.618-.266-.904-.983-.637-1.602l.01-.022c.266-.619.983-.904 1.601-.638.619.267.904.984.638 1.601l-.01.024zM9.66 50.273l-.007.024c-.209.639-.897.989-1.537.78-.64-.209-.989-.898-.781-1.537l.008-.024c.209-.639.897-.989 1.537-.78.641.209.99.897.78 1.537zm-1.545 5.576l-.006.025c-.15.655-.804 1.066-1.459.915-.657-.15-1.067-.804-.918-1.46l.005-.024c.151-.656.805-1.066 1.461-.917.656.152 1.066.804.917 1.461zm-1.032 5.693l-.003.024c-.09.667-.703 1.135-1.371 1.047-.667-.09-1.135-.704-1.046-1.37l.003-.025c.09-.667.704-1.136 1.371-1.046.667.089 1.136.702 1.046 1.37zm-.507 5.764l-.001.023c-.028.674-.596 1.197-1.269 1.168-.672-.028-1.194-.596-1.167-1.269l.001-.024c.029-.673.596-1.195 1.269-1.167.673.028 1.196.595 1.167 1.269zm-1.254 4.627c.672-.034 1.245.482 1.277 1.155l.003.025c.034.672-.484 1.245-1.157 1.278-.672.034-1.245-.483-1.278-1.155l-.001-.026c-.034-.671.483-1.244 1.156-1.277zm.452 5.878c.667-.096 1.285.368 1.379 1.035l.004.023c.095.668-.369 1.285-1.034 1.38-.668.095-1.285-.369-1.38-1.035l-.003-.026c-.096-.665.368-1.282 1.034-1.377zm.986 5.813c.655-.155 1.312.25 1.467.905l.006.023c.155.656-.251 1.313-.907 1.467-.654.156-1.312-.25-1.466-.906l-.006-.023c-.155-.655.252-1.311.906-1.466zm1.506 5.7c.638-.212 1.328.133 1.541.772l.008.022v.002c.212.637-.132 1.328-.771 1.541-.639.213-1.329-.133-1.542-.772l-.007-.022c-.213-.639.132-1.329.771-1.543zm2.009 5.543c.617-.269 1.336.012 1.606.628l.01.024c.269.617-.012 1.335-.629 1.605-.617.269-1.336-.013-1.605-.629l-.01-.023c-.269-.616.011-1.335.628-1.605zm2.506 5.338c.59-.326 1.33-.11 1.655.48l.012.02c.326.591.111 1.331-.479 1.656-.59.326-1.332.11-1.657-.479l-.012-.021c-.324-.59-.11-1.332.481-1.656zm4.674 5.412l.014.02v-.001c.377.559.232 1.316-.326 1.694-.557.377-1.315.232-1.693-.326l-.014-.021c-.377-.557-.231-1.316.327-1.692.558-.378 1.315-.231 1.692.326zm3.457 4.635l.016.018c.427.521.35 1.289-.169 1.716-.52.427-1.289.35-1.716-.17l-.015-.019c-.428-.52-.353-1.288.169-1.715.52-.428 1.288-.352 1.715.17zm3.868 4.299l.017.017c.473.479.468 1.251-.012 1.725-.48.471-1.252.466-1.724-.013l-.017-.017c-.473-.48-.467-1.251.011-1.725.481-.472 1.252-.467 1.725.013zm4.245 3.931l.018.016v-.001c.514.435.579 1.204.145 1.718-.436.515-1.204.58-1.719.145l-.019-.016c-.514-.434-.579-1.204-.143-1.718.434-.514 1.203-.579 1.718-.144zm4.583 3.529l.019.014.001.001c.552.385.686 1.146.299 1.697-.386.551-1.146.686-1.696.3l-.021-.015c-.552-.384-.687-1.145-.3-1.697.387-.551 1.146-.685 1.698-.3zm4.885 3.102l.021.012h.001c.583.334.786 1.079.451 1.663-.335.585-1.08.787-1.664.453l-.021-.013c-.584-.334-.787-1.079-.453-1.664.336-.583 1.08-.786 1.665-.451zm5.145 2.647l.023.01c.613.281.881 1.004.601 1.616-.281.612-1.004.881-1.617.6l-.023-.011c-.612-.278-.88-1.003-.6-1.616.281-.611 1.005-.88 1.616-.599zm5.364 2.171l.024.007-.001.001c.636.224.969.92.745 1.555-.225.635-.92.967-1.555.745l-.024-.009c-.634-.223-.967-.921-.744-1.555.223-.635.921-.968 1.555-.744zm5.538 1.675l.025.007c.653.165 1.048.827.883 1.48-.165.653-.828 1.048-1.481.883l-.025-.006c-.652-.166-1.047-.829-.882-1.482.166-.652.829-1.047 1.48-.882zm5.67 1.165l.023.004c.666.104 1.12.729 1.014 1.394-.105.665-.73 1.119-1.394 1.014l-.024-.005c-.666-.105-1.119-.729-1.014-1.393.105-.665.729-1.119 1.395-1.014zm5.75.642l.024.001c.672.044 1.181.623 1.137 1.296-.042.672-.624 1.181-1.295 1.137l-.025-.002c-.672-.043-1.18-.624-1.137-1.296.044-.671.624-1.18 1.296-1.136zm5.783.113l.024-.002c.674-.018 1.234.513 1.253 1.186.016.673-.515 1.233-1.187 1.252h-.025c-.673.018-1.233-.513-1.251-1.186-.018-.674.513-1.232 1.186-1.25zm5.769-.419l.025-.002c.668-.08 1.274.397 1.354 1.065.08.669-.398 1.276-1.066 1.355l-.026.004c-.668.079-1.274-.399-1.354-1.068-.078-.668.398-1.274 1.067-1.354zm5.708-.942l.024-.004c.658-.139 1.305.281 1.446.94.138.658-.281 1.305-.94 1.445l-.024.005c-.66.139-1.306-.281-1.446-.939-.14-.659.281-1.306.94-1.447zm5.601-1.451l.024-.007c.643-.198 1.326.163 1.524.807.197.642-.163 1.325-.806 1.523l-.025.006c-.643.198-1.325-.163-1.523-.805-.198-.643.162-1.326.806-1.524zm5.448-1.947l.024-.009h-.001c.622-.257 1.335.042 1.589.665.257.623-.042 1.335-.665 1.59l-.024.01c-.623.254-1.334-.044-1.589-.668-.254-.622.043-1.333.666-1.588zm5.248-2.433l.022-.012c.596-.311 1.333-.078 1.644.519.31.597.079 1.334-.518 1.644l-.023.012c-.597.31-1.333.078-1.644-.518-.312-.599-.078-1.334.519-1.645zm5.003-2.903l.021-.013c.565-.364 1.32-.2 1.685.367.364.566.2 1.32-.366 1.685l-.02.012c-.568.364-1.322.202-1.686-.366-.364-.565-.2-1.32.366-1.685zm4.736-3.363v.001c.53-.415 1.296-.321 1.711.209.415.531.32 1.298-.21 1.712l-.019.015c-.532.414-1.297.321-1.712-.21-.414-.531-.321-1.296.211-1.711l.019-.016zm4.388-3.766c.49-.462 1.262-.437 1.723.053.462.49.437 1.262-.052 1.723l-.019.017c-.49.462-1.261.437-1.723-.053-.461-.49-.438-1.262.053-1.723l.018-.017zm4.027-4.152c.447-.504 1.216-.549 1.721-.104.504.448.551 1.217.105 1.721l-.016.019c-.446.503-1.217.55-1.721.103-.505-.445-.551-1.217-.105-1.72l.016-.019zm3.634-4.501c.398-.542 1.162-.658 1.705-.26.543.4.659 1.163.261 1.705l-.016.019c-.398.543-1.161.66-1.705.26-.542-.398-.658-1.162-.259-1.703l.014-.021zm3.214-4.811c.347-.577 1.097-.761 1.673-.413.576.348.761 1.097.413 1.673l-.014.022c-.348.575-1.098.76-1.673.412-.576-.348-.761-1.098-.413-1.674l.014-.02zm2.762-5.083l.001-.001c.294-.606 1.024-.857 1.63-.562.605.294.856 1.024.562 1.63l-.01.021c-.295.606-1.024.857-1.63.563-.606-.295-.858-1.024-.563-1.63l.01-.021zm2.285-5.289l.009-.024c.238-.63.943-.946 1.572-.708.629.239.946.943.708 1.572l-.009.023c-.239.63-.942.946-1.572.708-.629-.239-.947-.943-.708-1.571zm1.806-5.498l.005-.025c.181-.648.853-1.027 1.501-.847.649.181 1.029.854.848 1.502l-.006.023c-.181.648-.853 1.028-1.502.847-.649-.179-1.029-.851-.846-1.5zm1.295-5.639l.005-.024c.121-.661.756-1.102 1.417-.981.664.121 1.102.755.981 1.418l-.003.023c-.122.664-.756 1.102-1.418.982-.664-.122-1.102-.756-.982-1.418zm.777-5.732l.003-.026c.059-.669.651-1.165 1.322-1.106.67.06 1.165.651 1.106 1.321l-.002.025c-.06.672-.652 1.167-1.323 1.107-.67-.059-1.166-.652-1.106-1.321z"/>
</svg>
