<svg xmlns="http://www.w3.org/2000/svg" viewBox="0 0 21 14">
  <path fill-rule="evenodd" d="M7.773,10.092 L7.773,10.092 C7.86284914,10.764441 7.5309261,11.4231256 6.937,11.751 C6.5319765,11.9430107 6.08398567,12.0264059 5.637,11.993 L2.925,11.993 L2.925,8.463 L5.695,8.463 C6.12019696,8.42099092 6.54886213,8.49421978 6.936,8.675 C7.48690889,8.92243997 7.82220595,9.49008147 7.773,10.092 L7.773,10.092 Z M17.382,6.654 L17.382,6.654 C17.75011,7.08459267 17.9634496,7.62603857 17.988,8.192 L13.888,8.192 C13.9721332,7.6539872 14.1901454,7.1457507 14.522,6.714 C14.8950917,6.32251675 15.4263782,6.12259396 15.965,6.171 C16.4782903,6.16342754 16.9785814,6.33254497 17.382,6.65 L17.382,6.654 Z M0.011,1.013 L0.011,1.013 L0.011,14.313 L5.725,14.313 C6.33417291,14.3140003 6.94233951,14.263487 7.543,14.162 C8.05543926,14.0119247 8.53486667,13.7662732 8.956,13.438 C9.33037371,13.1625854 9.64475793,12.8138367 9.88,12.413 C10.2549191,11.7720765 10.4539609,11.0435214 10.457,10.301 C10.461831,9.61294983 10.2822758,8.93616468 9.937,8.341 C9.59541081,7.79928128 9.09296065,7.37795042 8.5,7.136 C8.87189734,6.9755545 9.19157811,6.71440683 9.423,6.382 C9.87295553,5.83101848 10.0995834,5.13114889 10.058,4.421 C10.0715468,3.71455165 9.87034447,3.02063011 9.481,2.431 C8.68630884,1.42718993 7.43771911,0.893585275 6.163,1.013 L0.016,1.013 L0.011,1.013 Z M12.711,5.413 L12.711,5.413 C11.815304,6.4695297 11.3605437,7.83022992 11.441,9.213 C11.3024492,10.6368798 11.7985469,12.0494409 12.797,13.074 C13.7108691,13.8122756 14.8542928,14.2074502 16.029,14.191 C17.3201368,14.2809688 18.582617,13.7817119 19.463,12.833 C19.9240268,12.3645735 20.2265536,11.7633672 20.328,11.114 L17.9,11.114 C17.8059506,11.3705363 17.6347798,11.591661 17.41,11.747 C16.6381818,12.3279683 15.5819621,12.3525034 14.784,11.808 C14.1339715,11.3618876 13.7711238,10.6030327 13.832,9.817 L20.5,9.817 C20.5025594,9.19182373 20.4641437,8.56715175 20.385,7.947 C20.2731863,7.24359402 20.0284981,6.56790148 19.664,5.956 C19.2748981,5.35715135 18.7379436,4.8687604 18.105,4.538 C17.4291764,4.25445856 16.7028761,4.11089944 15.97,4.116 C14.7454015,4.05581475 13.555054,4.53056708 12.708,5.417 L12.711,5.413 Z M13.374,1.552 L13.374,1.552 L13.374,2.909 L18.453,2.909 L18.453,1.552 L13.374,1.552 L13.374,1.552 Z M6.997,5.896 L6.997,5.896 C6.58361908,6.12786732 6.11472077,6.24232554 5.641,6.227 L2.929,6.227 L2.929,3.301 L5.329,3.301 C5.8368654,3.29507151 6.34266956,3.36655849 6.829,3.513 C7.30276183,3.73202374 7.58227642,4.23055191 7.522,4.749 C7.56905415,5.20024337 7.36671857,5.64131961 6.994,5.9 L6.997,5.896 Z" transform="translate(0 -1)"/>
</svg>
