<svg xmlns="http://www.w3.org/2000/svg" viewBox="0 0 40 70">
  <path fill-rule="evenodd" d="M33.807 39.056c-.472.147-.853.214-1.349.229.002-.048.017-.455.017-.457.348-3.763 2.142-6.632 4.494-9.51.762-.899 1.589-1.754 2.481-2.527.152 1.435.114 2.893-.127 4.315-.677 3.348-2.094 6.64-5.516 7.95zm-.933-9.437c-1.047-3.275.053-7.3 1.388-10.341.463-1.055.996-2.087 1.61-3.065.536 1.267.904 2.607 1.078 3.971.323 3.64-.259 7.855-4.076 9.435zm-2.224-9.15c-1.955-2.88-1.986-6.663-1.62-9.997.133-1.129.336-2.254.625-3.354.853 1.027 1.573 2.168 2.118 3.385 1.406 3.179 1.881 7.537-1.123 9.966zm1.219 18.255c-1.585 8.223-4.726 13.9-10.876 19.623C14.55 63.785 8.488 66.244.054 66.889c-.018-.377-.037-.752-.055-1.128 8.177-.577 14.059-2.924 20.351-8.135 6.05-5.524 9.167-11.027 10.826-19.02 1.256-8.108.25-14.372-3.488-21.686-1.851-3.323-3.683-5.711-6.421-8.367 2.825 2.592 4.722 4.939 6.662 8.236 3.968 7.336 5.093 13.688 3.94 21.935zM21.616 3.373c-.215-1.11-.368-2.239-.438-3.368 1.105.722 2.117 1.591 2.987 2.58 2.248 2.762 4.009 6.387 1.894 9.734-2.601-1.982-3.849-5.88-4.443-8.946zm-5.165 6.59c2.997-.556 6.815.502 7.976 3.576-3.407 1.277-7.969-.532-10.809-2.578.889-.472 1.843-.814 2.833-.998zm-.78 50.447c-1.65-3.636-.214-8.654 1.703-12.055.63.914 1.141 1.907 1.482 2.963.516 1.717.619 3.101.194 4.851-.581 1.945-1.54 3.299-3.379 4.241zm6.101-44.604c1.883.126 3.295.577 4.795 1.73 1.211 1.029 1.933 2.095 2.175 3.676-3.775.327-7.616-2.292-9.989-5.074.985-.259 2.001-.377 3.019-.332zm.696 38.979c-2.494-2.858-2.228-8.401-1.243-11.932.819.724 1.539 1.554 2.11 2.485 1.78 2.903 1.991 7.117-.867 9.447zm5.05-7.28c-3.129-2.196-4.12-7.559-4.032-11.302.981.522 1.806 1.101 2.606 1.908 2.476 2.734 3.546 6.108 1.426 9.394zm-5.324-25.16c1.034-.023 2.07.098 3.064.382 3.092.884 5.994 3.671 5.569 7.093-3.604-.428-7.031-4.318-8.633-7.475zm8.235 16.566c-3.418-1.368-5.812-6.274-6.621-9.751 1.032.232 2.026.606 2.94 1.134 2.991 1.909 4.682 4.63 3.822 8.209.001.025-.122.359-.141.408zM13.3 4.438c-.751-.726-1.464-1.495-2.138-2.293 1.082-.102 2.177-.04 3.24.176 2.984.603 6.633 2.856 6.829 6.2-3.012.054-5.881-2.1-7.931-4.083zm-.275 51.374c.245 3.602-1.671 7.494-5.508 8.223-.851-3.706 2.223-8.796 4.775-11.52.395 1.061.657 2.167.733 3.297zm6.85 10.664c1.183.4 2.344.89 3.436 1.496-1.418.768-2.943 1.353-4.52 1.706-3.969.724-8.823.562-10.688-3.649 3.612-1.4 8.195-.757 11.772.447zm-3.098-4.313c3.129-2.358 7.246-2.892 11.08-2.783 1.229.045 2.464.179 3.668.434-1.57 1.56-3.736 3.051-5.852 3.782-3.158 1.017-6.539 1.296-8.896-1.433zm7.227-5.988c2.081-2.99 6.206-4.821 9.629-5.743 1.177-.318 2.384-.558 3.598-.68-.729 1.349-1.638 2.607-2.711 3.707-2.819 2.673-6.736 5.013-10.516 2.716zm5.366-7.748c1.096-3.425 4.5-6.42 7.427-8.344 1.04-.685 2.092-1.272 3.189-1.769-.293 1.494-.811 3.083-1.475 4.346-1.856 3.352-4.872 6.799-9.141 5.767z"/>
</svg>
