<svg xmlns="http://www.w3.org/2000/svg" viewBox="0 0 40 70">
  <path fill-rule="evenodd" d="M26.996 55.787c.076-1.129.338-2.235.734-3.295 2.553 2.722 5.63 7.81 4.778 11.514-3.84-.729-5.757-4.618-5.512-8.219zm-8.212-47.27c.196-3.342 3.847-5.595 6.834-6.198 1.064-.215 2.16-.276 3.243-.175-.675.798-1.388 1.566-2.14 2.292-2.051 1.983-4.923 4.135-7.937 4.081zm-4.832 3.797c-2.117-3.346-.355-6.97 1.895-9.73.871-.989 1.884-1.857 2.99-2.579-.071 1.129-.224 2.257-.439 3.367-.594 3.064-1.843 6.961-4.446 8.942zm9.615-2.355c.991.184 1.946.526 2.835.997-2.841 2.045-7.407 3.853-10.817 2.576 1.162-3.072 4.984-4.129 7.982-3.573zm-.923 38.374c1.918 3.399 3.355 8.416 1.704 12.05-1.84-.941-2.801-2.295-3.381-4.239-.426-1.749-.323-3.133.194-4.849.341-1.056.852-2.048 1.483-2.962zm-9.201-30.804c1.502-1.153 2.915-1.604 4.799-1.73 1.019-.045 2.036.073 3.021.332-2.374 2.781-6.218 5.399-9.997 5.072.243-1.581.966-2.647 2.177-3.674zm1.31 5.188c.995-.284 2.032-.404 3.067-.382-1.603 3.155-5.033 7.044-8.64 7.471-.425-3.42 2.48-6.206 5.573-7.089zM9.437 38.486c-.86-3.577.832-6.297 3.826-8.206.914-.528 1.909-.901 2.941-1.133-.809 3.476-3.205 8.38-6.626 9.747-.018-.049-.142-.384-.141-.408zm9.353 4.348c.985 3.529 1.252 9.07-1.245 11.927-2.86-2.329-2.648-6.542-.867-9.443.572-.931 1.292-1.76 2.112-2.484zm-6.299 4.65c-2.121-3.284-1.05-6.657 1.428-9.39.801-.806 1.626-1.386 2.608-1.908.088 3.742-.904 9.103-4.036 11.298zm-.169-30.571c-3.742 7.31-4.748 13.571-3.491 21.676 1.66 7.989 4.78 13.489 10.835 19.011 6.296 5.209 12.183 7.555 20.366 8.132-.018.376-.037.751-.055 1.127-8.441-.645-14.507-3.102-20.955-8.538C12.867 52.6 9.724 46.926 8.138 38.707c-1.155-8.244-.029-14.593 3.943-21.925 1.941-3.296 3.84-5.642 6.667-8.233-2.741 2.655-4.574 5.042-6.426 8.364zm-4.089-6.415c.545-1.217 1.266-2.357 2.12-3.384.289 1.1.492 2.225.626 3.353.365 3.333.334 7.114-1.622 9.993-3.006-2.428-2.53-6.784-1.124-9.962zM7.132 29.605c-3.82-1.579-4.403-5.792-4.08-9.43.174-1.364.543-2.703 1.079-3.969.614.977 1.148 2.009 1.612 3.063 1.336 3.04 2.436 7.063 1.389 10.336zm.399 9.205c0 .003.015.41.016.457-.495-.014-.877-.082-1.349-.229-3.425-1.309-4.843-4.6-5.52-7.945-.241-1.423-.28-2.879-.128-4.314.893.773 1.721 1.627 2.484 2.526 2.353 2.877 4.149 5.745 4.497 9.505zm3.108 9.595c-4.273 1.032-7.292-2.413-9.149-5.764-.664-1.263-1.183-2.85-1.476-4.344 1.098.496 2.151 1.083 3.191 1.768 2.93 1.923 6.336 4.917 7.434 8.34zm5.37 7.745c-3.783 2.296-7.704-.043-10.525-2.715-1.074-1.1-1.983-2.357-2.713-3.706 1.215.123 2.423.363 3.601.68 3.426.922 7.554 2.752 9.637 5.741zm7.232 5.986c-2.359 2.727-5.743 2.449-8.903 1.432-2.117-.732-4.285-2.221-5.856-3.781 1.205-.255 2.441-.388 3.671-.433 3.836-.109 7.957.425 11.088 2.782zM31.922 66c-1.866 4.209-6.725 4.371-10.696 3.647-1.578-.353-3.105-.938-4.524-1.706 1.093-.605 2.255-1.095 3.439-1.494 3.579-1.205 8.166-1.846 11.781-.447z"/>
</svg>
