<svg xmlns="http://www.w3.org/2000/svg" viewBox="0 0 16 16">
  <g fill-rule="evenodd">
    <path d="M8.064,3.98431373 C5.824,3.98431373 3.968,5.77254902 3.968,8 C3.968,10.227451 5.792,12.0156863 8.064,12.0156863 C10.336,12.0156863 12.16,10.1960784 12.16,8 C12.16,5.80392157 10.304,3.98431373 8.064,3.98431373 L8.064,3.98431373 Z M8.064,10.572549 C6.624,10.572549 5.44,9.41176471 5.44,8 C5.44,6.58823529 6.624,5.42745098 8.064,5.42745098 C9.504,5.42745098 10.688,6.58823529 10.688,8 C10.688,9.41176471 9.504,10.572549 8.064,10.572549 L8.064,10.572549 Z"/>
    <ellipse cx="12.32" cy="3.89" rx=".928" ry=".91"/>
    <path d="M14.72,1.5372549 C13.888,0.690196078 12.704,0.250980392 11.36,0.250980392 L4.768,0.250980392 C1.984,0.250980392 0.128,2.07058824 0.128,4.8 L0.128,11.2313725 C0.128,12.5803922 0.576,13.7411765 1.472,14.5882353 C2.336,15.4039216 3.488,15.8117647 4.8,15.8117647 L11.328,15.8117647 C12.704,15.8117647 13.856,15.372549 14.688,14.5882353 C15.552,13.772549 16,12.6117647 16,11.2627451 L16,4.8 C16,3.48235294 15.552,2.35294118 14.72,1.5372549 L14.72,1.5372549 Z M14.528,11.2627451 C14.528,12.2352941 14.24,13.0196078 13.664,13.5529412 C13.088,14.0862745 12.288,14.3686275 11.328,14.3686275 L4.8,14.3686275 C3.84,14.3686275 3.04,14.0862745 2.464,13.5529412 C1.888,12.9882353 1.6,12.2039216 1.6,11.2313725 L1.6,4.8 C1.6,3.85882353 1.888,3.0745098 2.464,2.50980392 C3.008,1.97647059 3.84,1.69411765 4.8,1.69411765 L11.392,1.69411765 C12.352,1.69411765 13.152,1.97647059 13.728,2.54117647 C14.272,3.10588235 14.592,3.89019608 14.592,4.8 L14.592,11.2627451 L14.528,11.2627451 Z"/>
  </g>
</svg>
