<svg xmlns="http://www.w3.org/2000/svg" viewBox="0 0 188 30">
  <path fill-rule="evenodd" d="M172.227 30c-8.694 0-15.767-6.726-15.767-14.995 0-8.268 7.073-14.994 15.767-14.994 8.694 0 15.767 6.726 15.767 14.994 0 8.269-7.073 14.995-15.767 14.995zm0-22.183c-4.168 0-7.559 3.224-7.559 7.188 0 3.965 3.391 7.19 7.559 7.19s7.56-3.225 7.56-7.19c0-3.964-3.392-7.188-7.56-7.188zm-35.22 21.296s-.737.062-1.085.062c-.349 0-17.373-.011-17.373-.011v-7.323h5.376V8.17h-5.376V.847h17.602c8.072.113 14.63 6.464 14.63 14.158 0 7.397-6.105 13.584-13.774 14.108zm-1.48-20.943h-3.781v13.67l3.781-.004c3.926-.035 7.119-3.099 7.119-6.831 0-3.734-3.193-6.8-7.119-6.835zm-49.14 5.822v15.172h-13.12v-7.366h5.375V8.212h-5.375V.847h10.258l12.3 15.162V.847h13.121v7.365h-5.375v13.586h5.375v7.366H98.688L86.387 13.992zM52.227 30c-8.694 0-15.767-6.726-15.767-14.995C36.46 6.737 43.533.011 52.227.011c8.694 0 15.767 6.726 15.767 14.994C67.994 23.274 60.921 30 52.227 30zm0-22.183c-4.168 0-7.559 3.224-7.559 7.188 0 3.965 3.391 7.19 7.559 7.19s7.56-3.225 7.56-7.19c0-3.964-3.392-7.188-7.56-7.188zm-29.022 4.876V8.219h-4.159v13.585h6.568l.006-.006v7.372H4.727v-7.372l.006.006h6.568V8.219H7.142v4.48H0V.853h30.346v11.846h-7.141v-.006z"/>
</svg>
