<svg xmlns="http://www.w3.org/2000/svg" viewBox="0 0 13 16">
  <path fill-rule="evenodd" d="M10.1 5.56c-.7 0-1.33-.25-1.83-.65L5.52 6.88c.16.35.26.74.26 1.15 0 .37-.08.7-.2 1l2.8 2c.47-.33 1.07-.55 1.73-.55 1.6 0 2.9 1.24 2.9 2.78 0 1.54-1.3 2.78-2.9 2.78-1.6 0-2.86-1.23-2.86-2.77 0-.36.08-.7.2-1l-2.8-2.02c-.47.37-1.07.6-1.73.6C1.3 10.77 0 9.54 0 8c0-1.54 1.3-2.78 2.9-2.78.6 0 1.14.17 1.6.47l2.88-2.07c-.1-.27-.16-.56-.16-.87 0-1.53 1.3-2.78 2.9-2.78C11.7 0 13 1.24 13 2.78c0 1.53-1.3 2.77-2.9 2.77z"/>
</svg>
